<?xml version="1.0" encoding="UTF-8"?>
<svg width="256" height="256" version="1.1"
     xmlns="http://www.w3.org/2000/svg"
     xmlns:xlink="http://www.w3.org/1999/xlink">
  <defs>
    <linearGradient id="Gradient" x1="0" x2="0" y1="0" y2="1">
      <stop offset="0%" style="stop-color:#007AFF;stop-opacity:1" />
      <stop offset="100%" style="stop-color:#1C71D8;stop-opacity:1" />
    </linearGradient>
    <filter id="alpha-to-white">
      <feColorMatrix in="SourceGraphic" type="matrix"
                     values="0 0 0 0 1 0 0 0 0 1 0 0 0 0 1 0 0 0 1 0"/>
    </filter>
    <g id="child-svg"><svg xmlns="http://www.w3.org/2000/svg" height="48" width="48"><path d="M12.75 36.55q-1.95 0-3.35-1.375Q8 33.8 8 31.85V7.4q0-1.95 1.4-3.325Q10.8 2.7 12.75 2.7h9.2q.95 0 1.85.375.9.375 1.55 1.025l1.6 1.6h15.5q1.95 0 3.325 1.375Q47.15 8.45 47.15 10.4v21.45q0 1.95-1.375 3.325Q44.4 36.55 42.45 36.55Zm0-4.7h29.7V10.4h-17.5l-3-3h-9.2v24.45ZM5.55 43.7q-1.95 0-3.325-1.375Q.85 40.95.85 39V14.1q0-1 .675-1.7t1.675-.7q1 0 1.675.7t.675 1.7V39H37q1 0 1.675.675t.675 1.675q0 1-.675 1.675T37 43.7ZM19.8 27.45h15.65q.8 0 1.1-.675.3-.675-.15-1.275l-4.25-5.6q-.35-.5-.95-.5t-1 .5l-4.15 5.5-2.9-3.05q-.35-.4-.925-.375-.575.025-.925.425l-2.5 3.1q-.45.6-.1 1.275.35.675 1.1.675Zm-7.05 4.4V7.4v24.45Z" /></svg></g>
  </defs>
  <rect
      width="256"
      height="256"
      fill="url(#Gradient)"
      ry="0"
      x="0"
      y="0" />
  <use xlink:href="#child-svg" filter="url(#alpha-to-white)"
       transform="matrix(2.6666666666666665,0,0,2.6666666666666665,64,64)" />
</svg>
